<svg xmlns="http://www.w3.org/2000/svg" width="624" height="254" viewBox="0 0 624 254">
  <g id="Group_49" data-name="Group 49" transform="translate(-2461 -188)">
    <rect id="Rectangle_12" data-name="Rectangle 12" width="624" height="254" transform="translate(2461 188)" fill="none"/>
    <g id="Group_34" data-name="Group 34" transform="translate(2474.481 199.5)">
      <g id="A1_Logo" data-name="A1 Logo" transform="translate(0 0)">
        <g id="Layer1000">
          <path id="path26" d="M528.917,416.383c0,6.94-6.039,12.566-13.493,12.566s-13.494-5.626-13.494-12.566,6.043-12.564,13.494-12.564S528.917,409.446,528.917,416.383Z" transform="translate(-395.945 -386.714)" fill="#0076be" fill-rule="evenodd"/>
          <path id="path28" d="M645.561,354.635c0,5.17-4.5,9.358-10.048,9.358s-10.046-4.188-10.046-9.358,4.5-9.356,10.046-9.356S645.561,349.468,645.561,354.635Z" transform="translate(-483.386 -345.279)" fill="#0076be" fill-rule="evenodd"/>
          <path id="path30" d="M460.846,533.979c0,5.17-4.5,9.356-10.048,9.356s-10.046-4.186-10.046-9.356,4.5-9.355,10.046-9.355S460.846,528.812,460.846,533.979Z" transform="translate(-352.642 -472.221)" fill="#0076be" fill-rule="evenodd"/>
          <path id="path32" d="M432.173,634.542a6.044,6.044,0,1,1-6.03-5.614A5.832,5.832,0,0,1,432.173,634.542Z" transform="translate(-338.036 -546.049)" fill="#0076be" fill-rule="evenodd"/>
          <path id="path34" d="M820.579,466.918a14.205,14.205,0,0,1-19.086,0,11.967,11.967,0,0,1,0-17.77,14.2,14.2,0,0,1,19.08,0,11.965,11.965,0,0,1,0,17.768Z" transform="translate(-605.185 -416.194)" fill="#004394" fill-rule="evenodd"/>
          <path id="path36" d="M958.279,496.843a10.582,10.582,0,0,1-14.211,0,8.906,8.906,0,0,1,0-13.231,10.577,10.577,0,0,1,14.207,0A8.91,8.91,0,0,1,958.279,496.843Z" transform="translate(-706.813 -441.252)" fill="#004394" fill-rule="evenodd"/>
          <path id="path38" d="M691.49,502.028a10.586,10.586,0,0,1-14.212,0,8.907,8.907,0,0,1,0-13.233,10.577,10.577,0,0,1,14.2,0A8.911,8.911,0,0,1,691.49,502.028Z" transform="translate(-517.976 -444.922)" fill="#004394" fill-rule="evenodd"/>
          <path id="path40" d="M604.587,550.484a6.339,6.339,0,0,1-8.524,0,5.341,5.341,0,0,1,0-7.938,6.344,6.344,0,0,1,8.524,0A5.346,5.346,0,0,1,604.587,550.484Z" transform="translate(-461.323 -483.743)" fill="#004394" fill-rule="evenodd"/>
          <path id="path42" d="M279.182,558.794a11.963,11.963,0,0,1,.367,17.77,14.205,14.205,0,0,1-19.077.339,11.959,11.959,0,0,1-.366-17.762,14.2,14.2,0,0,1,19.076-.348Z" transform="translate(-222.11 -493.924)" fill="#009ee0" fill-rule="evenodd"/>
          <path id="path44" d="M308.818,445.691a8.908,8.908,0,0,1,.276,13.23,10.577,10.577,0,0,1-14.208.257,8.911,8.911,0,0,1-.275-13.231A10.584,10.584,0,0,1,308.818,445.691Z" transform="translate(-247.216 -414.503)" fill="#009ee0" fill-rule="evenodd"/>
          <path id="path46" d="M319.53,694a8.912,8.912,0,0,1,.272,13.234,10.577,10.577,0,0,1-14.2.25,8.913,8.913,0,0,1-.278-13.228A10.58,10.58,0,0,1,319.53,694Z" transform="translate(-254.8 -590.256)" fill="#009ee0" fill-rule="evenodd"/>
          <path id="path48" d="M373.431,792.281a5.345,5.345,0,0,1,.165,7.938,6.342,6.342,0,0,1-8.524.151,5.344,5.344,0,0,1-.165-7.936A6.349,6.349,0,0,1,373.431,792.281Z" transform="translate(-297.767 -660.563)" fill="#009ee0" fill-rule="evenodd"/>
          <path id="path50" d="M217.432,825.628c7.454-.137,13.612,5.381,13.755,12.325s-5.779,12.666-13.229,12.8-13.61-5.381-13.75-12.316S209.984,825.762,217.432,825.628Z" transform="translate(-185.211 -685.274)" fill="#00b2e7" fill-rule="evenodd"/>
          <path id="path52" d="M149.051,733.9c5.553-.1,10.138,4.009,10.244,9.176s-4.306,9.436-9.856,9.535-10.125-4.009-10.235-9.173S143.506,734,149.051,733.9Z" transform="translate(-139.201 -620.351)" fill="#00b2e7" fill-rule="evenodd"/>
          <path id="path54" d="M345.162,902.433c5.55-.1,10.135,4.012,10.242,9.176s-4.3,9.433-9.853,9.532-10.131-4.006-10.238-9.17S339.615,902.533,345.162,902.433Z" transform="translate(-278.009 -739.638)" fill="#00b2e7" fill-rule="evenodd"/>
          <path id="path56" d="M453.871,945.5a5.627,5.627,0,1,1-5.911,5.723A5.856,5.856,0,0,1,453.871,945.5Z" transform="translate(-357.744 -770.121)" fill="#00b2e7" fill-rule="evenodd"/>
          <path id="path58" d="M368.969,1052.873a14.214,14.214,0,0,1,19.083.368,11.963,11.963,0,0,1-.4,17.768,14.2,14.2,0,0,1-19.073-.371,11.966,11.966,0,0,1,.391-17.764Z" transform="translate(-298.898 -843.647)" fill="#51c7ee" fill-rule="evenodd"/>
          <path id="path60" d="M248.471,1035.979a10.586,10.586,0,0,1,14.208.28,8.912,8.912,0,0,1-.3,13.231,10.579,10.579,0,0,1-14.2-.276A8.91,8.91,0,0,1,248.471,1035.979Z" transform="translate(-214.355 -832.324)" fill="#51c7ee" fill-rule="evenodd"/>
          <path id="path62" d="M515.332,1035.986a10.586,10.586,0,0,1,14.2.282,8.9,8.9,0,0,1-.3,13.225,10.581,10.581,0,0,1-14.2-.273A8.914,8.914,0,0,1,515.332,1035.986Z" transform="translate(-403.242 -832.33)" fill="#51c7ee" fill-rule="evenodd"/>
          <path id="path64" d="M622.558,1007.535a6.352,6.352,0,0,1,8.526.16,5.347,5.347,0,0,1-.183,7.938,6.337,6.337,0,0,1-8.515-.162A5.337,5.337,0,0,1,622.558,1007.535Z" transform="translate(-480.014 -812.924)" fill="#51c7ee" fill-rule="evenodd"/>
          <path id="path66" d="M850.66,714.807q-8.119,4.016-21.13,4.015-24.512,0-24.514-21.1a53.135,53.135,0,0,1,1.437-11.571l5.409-23.61q7.439-32.66,46.23-32.667l38.8.787-19.944,87.368H849.9Zm14.707-64.46H851.925q-11.075,0-13.016,12.2l-5.581,24.4a20.6,20.6,0,0,0-.5,4.252q0,7.164,7.942,7.163a45.021,45.021,0,0,0,14.206-2.2Z" transform="translate(-610.473 -546.722)" fill="#868789" fill-rule="evenodd"/>
          <path id="path68" d="M1156.248,549.072l-25.36,110.978h-27.041L1129.2,549.072Z" transform="translate(-821.989 -489.526)" fill="#868789" fill-rule="evenodd"/>
          <path id="path70" d="M1295.459,553.619l-19.95,87.365h-27.045l19.948-87.365Zm4.395-19.2a14.782,14.782,0,0,1-5.831,8.5,16.742,16.742,0,0,1-10.4,3.619q-5.749,0-8.786-3.7a9.078,9.078,0,0,1-2.286-6.062,13.949,13.949,0,0,1,.25-2.518,14.791,14.791,0,0,1,5.835-8.5,16.746,16.746,0,0,1,10.394-3.621q5.744,0,8.875,3.621a9.605,9.605,0,0,1,2.2,6.14,13.647,13.647,0,0,1-.254,2.518Z" transform="translate(-924.351 -470.461)" fill="#868789" fill-rule="evenodd"/>
          <path id="path72" d="M1445.5,549.072,1420.14,660.05H1393.1l25.354-110.978Z" transform="translate(-1026.723 -489.526)" fill="#868789" fill-rule="evenodd"/>
          <path id="path74" d="M1630.947,711.259a147.235,147.235,0,0,1-37.355,4.879q-35.33,0-35.326-23.059a39.008,39.008,0,0,1,1.1-8.817l5.577-24.4q7.436-32.661,46.231-32.661,32.713,0,32.713,23.06a44.021,44.021,0,0,1-1.188,9.6l-4.559,20.071h-50.711l-1.011,4.328a13.655,13.655,0,0,0-.428,3.3q0,8.11,12.084,8.109,2.873.159,5.834.157a144.252,144.252,0,0,0,31.445-3.544ZM1591.141,663.4h23.667l.846-3.462a21.034,21.034,0,0,0,.5-4.328q0-7.951-9.211-7.949-12.254.393-14.96,12.278Z" transform="translate(-1143.632 -544.827)" fill="#868789" fill-rule="evenodd"/>
          <path id="path76" d="M1965.1,656.047l-5.407,23.612q-7.779,34.239-48.26,34.237-35,0-34.993-24.32a44.04,44.04,0,0,1,1.266-9.918l5.412-23.612q7.862-34.234,49.189-34.235,34.061,0,34.063,24a45.9,45.9,0,0,1-1.271,10.231Zm-37.355-13.772q-14.459,0-17.582,13.772l-5.407,23.612a19.014,19.014,0,0,0-.6,4.486q0,9.29,11.751,9.29,13.6,0,16.733-13.776l5.413-23.612a21.622,21.622,0,0,0,.586-4.722Q1938.645,642.279,1927.747,642.275Z" transform="translate(-1368.842 -541.013)" fill="#868789" fill-rule="evenodd"/>
          <path id="path78" d="M560.16,681.5l-3.331,14.659a44.97,44.97,0,0,1-14.2,2.207q-7.944,0-7.946-7.162a20.558,20.558,0,0,1,.5-4.252l5.581-24.4q1.944-12.2,13.016-12.2h40.47l4.493-19.678-38.793-.787q-38.792,0-46.233,32.663l-5.406,23.61a52.99,52.99,0,0,0-1.44,11.57q0,21.1,24.513,21.1,13.016,0,21.13-4.015l-3.949,17.459h27.045L587.143,681.5Z" transform="translate(-399.446 -546.728)" fill="#868789" fill-rule="evenodd"/>
          <path id="path80" d="M755.388,1009.622a21.34,21.34,0,0,0,5.583.761q3.141,0,3.506-1.548a1.393,1.393,0,0,0,.027-.234q0-1.205-3-1.731c-2.88-.625-4.306-1.811-4.306-3.553a3.506,3.506,0,0,1,.1-.844q1.068-4.67,8.013-4.673a11.847,11.847,0,0,1,4.5,1.038l-.645,2.846a17.539,17.539,0,0,0-4.559-.758q-2.842,0-3.166,1.411a.865.865,0,0,0-.028.205c0,.727.886,1.363,2.662,1.9,3.053.624,4.587,1.825,4.587,3.6a4.1,4.1,0,0,1-.086.8q-1.077,4.675-8.322,4.673a19.138,19.138,0,0,1-5.519-1.052Z" transform="translate(-574.883 -807.141)" fill="#868789" fill-rule="evenodd"/>
          <path id="path82" d="M824.094,1013.411a9.109,9.109,0,0,1-4.111.967q-4.006,0-4.006-3.513a9.056,9.056,0,0,1,.253-1.991l.932-4.149q1.26-5.5,7.763-5.5l6.482.14L828,1014.237h-4.089Zm2.531-11.064h-2.707a2.469,2.469,0,0,0-2.653,2.378l-.982,4.286a3.2,3.2,0,0,0-.1.79c0,.967.568,1.452,1.7,1.452a8.959,8.959,0,0,0,2.812-.471Z" transform="translate(-618.232 -808.148)" fill="#868789" fill-rule="evenodd"/>
          <path id="path84" d="M884.361,985.023h4.1l-.944,4.149h4.455l-.709,3.126h-4.456l-1.531,6.663a3.091,3.091,0,0,0-.076.625q0,1.342,1.739,1.34a13.536,13.536,0,0,0,2.408-.248l-.624,2.751a9.577,9.577,0,0,1-3.683.622q-4.144,0-4.147-3.182a6.417,6.417,0,0,1,.2-1.491l1.614-7.08h-2.222l.71-3.126h2.234Z" transform="translate(-663.891 -798.097)" fill="#868789" fill-rule="evenodd"/>
          <path id="path86" d="M937.73,1013.123a24.757,24.757,0,0,1-6.241.773q-5.909,0-5.9-3.883a6.668,6.668,0,0,1,.178-1.48l.981-4.289q1.26-5.5,7.763-5.5,5.446,0,5.452,3.861a7.176,7.176,0,0,1-.214,1.642l-.736,3.293H930.1l-.241,1a2.891,2.891,0,0,0-.077.622c0,1.081.813,1.619,2.43,1.619.382.018.764.029,1.158.029a23.463,23.463,0,0,0,5.015-.528Zm-7.078-8.018h4.807l.186-.844a3.4,3.4,0,0,0,.113-.816c0-1.052-.645-1.577-1.922-1.577a2.859,2.859,0,0,0-3,2.393Z" transform="translate(-695.815 -807.807)" fill="#868789" fill-rule="evenodd"/>
          <path id="path88" d="M989.1,985.023l-4.333,19.028h-4.1L985,985.023Z" transform="translate(-734.799 -798.097)" fill="#868789" fill-rule="evenodd"/>
          <path id="path90" d="M1017.129,985.023l-4.343,19.028h-4.092l4.337-19.028Z" transform="translate(-754.639 -798.097)" fill="#868789" fill-rule="evenodd"/>
          <path id="path92" d="M1044.189,985.821l-3.4,14.879H1036.7l3.4-14.879Zm.822-3.621a2.351,2.351,0,0,1-.905,1.346,2.532,2.532,0,0,1-1.579.562,1.627,1.627,0,0,1-1.318-.567,1.371,1.371,0,0,1-.346-.927,2.319,2.319,0,0,1,.046-.413,2.412,2.412,0,0,1,.926-1.349,2.526,2.526,0,0,1,1.568-.562,1.654,1.654,0,0,1,1.326.554,1.368,1.368,0,0,1,.336.913A1.878,1.878,0,0,1,1045.011,982.2Z" transform="translate(-774.46 -794.747)" fill="#868789" fill-rule="evenodd"/>
          <path id="path94" d="M1077.789,985.023h4.1l-.942,4.149h4.453l-.709,3.126h-4.456l-1.531,6.663a3.27,3.27,0,0,0-.073.625q0,1.342,1.736,1.34a13.6,13.6,0,0,0,2.412-.248l-.627,2.751a9.552,9.552,0,0,1-3.679.622q-4.149,0-4.147-3.182a6.4,6.4,0,0,1,.195-1.491l1.617-7.08h-2.222l.709-3.126h2.232Z" transform="translate(-800.802 -798.097)" fill="#868789" fill-rule="evenodd"/>
          <path id="path96" d="M1131.149,1013.123a24.733,24.733,0,0,1-6.237.773c-3.943,0-5.9-1.292-5.9-3.883a6.82,6.82,0,0,1,.178-1.48l.983-4.289q1.256-5.5,7.76-5.5,5.451,0,5.456,3.861a7.248,7.248,0,0,1-.217,1.642l-.736,3.293h-8.912l-.242,1a3.11,3.11,0,0,0-.073.622c0,1.081.813,1.619,2.427,1.619.382.018.767.029,1.158.029a23.444,23.444,0,0,0,5.015-.528Zm-7.079-8.018h4.811l.186-.844a3.506,3.506,0,0,0,.11-.816q0-1.579-1.922-1.577a2.853,2.853,0,0,0-3,2.393Z" transform="translate(-832.72 -807.807)" fill="#868789" fill-rule="evenodd"/>
          <path id="path98" d="M1214.148,999.517l-.654,2.834a12.489,12.489,0,0,0-3.848-.51c-.336,0-.69.009-1.057.028a2.688,2.688,0,0,0-2.922,2.239l-1.008,4.425a3.294,3.294,0,0,0-.094.7c0,1.026.663,1.536,1.989,1.536.364.018.712.029,1.058.029a14.7,14.7,0,0,0,4.071-.513l-.636,2.834a15.974,15.974,0,0,1-5.2.773q-5.479,0-5.483-3.8a7.074,7.074,0,0,1,.2-1.562l1.009-4.425q1.233-5.364,7.744-5.367a12.964,12.964,0,0,1,4.838.776Z" transform="translate(-890.303 -807.808)" fill="#868789" fill-rule="evenodd"/>
          <path id="path100" d="M1268.809,1003.577l-.954,4.148q-1.315,5.783-8.126,5.78-5.827,0-5.828-4.077a7.73,7.73,0,0,1,.207-1.7l.951-4.148q1.3-5.778,8.258-5.78,5.7,0,5.7,4.069A7.916,7.916,0,0,1,1268.809,1003.577Zm-6.21-2.655a3.158,3.158,0,0,0-3.448,2.655l-.944,4.148a3.8,3.8,0,0,0-.1.858c0,1.2.773,1.8,2.341,1.8a3.077,3.077,0,0,0,3.307-2.655l.954-4.148a4.36,4.36,0,0,0,.1-.87C1264.812,1001.519,1264.072,1000.922,1262.6,1000.922Z" transform="translate(-928.2 -807.139)" fill="#868789" fill-rule="evenodd"/>
          <path id="path102" d="M1320.409,1014.1l2.176-9.515a3.625,3.625,0,0,0,.1-.8c0-.958-.572-1.437-1.7-1.437h-2.7L1315.6,1014.1h-4.089l3.361-14.739,6.537-.14q5.451,0,5.447,3.858a7.274,7.274,0,0,1-.208,1.645l-2.136,9.376Z" transform="translate(-968.976 -808.15)" fill="#868789" fill-rule="evenodd"/>
          <path id="path104" d="M1383.054,985.023h4.1l-.935,4.149h4.456l-.709,3.126h-4.456l-1.531,6.663a2.541,2.541,0,0,0-.077.625q0,1.342,1.74,1.34a13.447,13.447,0,0,0,2.4-.248l-.614,2.751a9.62,9.62,0,0,1-3.692.622q-4.13,0-4.135-3.182a6.8,6.8,0,0,1,.187-1.491l1.623-7.08h-2.231l.718-3.126h2.225Z" transform="translate(-1016.872 -798.097)" fill="#868789" fill-rule="evenodd"/>
          <path id="path106" d="M1431.366,1002.345h-1.29a5.688,5.688,0,0,0-2.531.484l-2.567,11.269h-4.092l3.075-13.453q1.7-1.428,6.827-1.426l1.278.028Z" transform="translate(-1046.393 -808.146)" fill="#868789" fill-rule="evenodd"/>
          <path id="path108" d="M1479.906,1003.577l-.954,4.148q-1.315,5.783-8.123,5.78-5.832,0-5.831-4.077a7.731,7.731,0,0,1,.207-1.7l.951-4.148q1.306-5.778,8.258-5.78,5.7,0,5.7,4.069A7.751,7.751,0,0,1,1479.906,1003.577Zm-6.21-2.655a3.158,3.158,0,0,0-3.448,2.655l-.941,4.148a3.643,3.643,0,0,0-.107.858c0,1.2.78,1.8,2.348,1.8a3.079,3.079,0,0,0,3.307-2.655l.953-4.148a4.528,4.528,0,0,0,.1-.87Q1475.909,1000.924,1473.7,1000.922Z" transform="translate(-1077.616 -807.139)" fill="#868789" fill-rule="evenodd"/>
          <path id="path110" d="M1531.036,985.023l-4.343,19.028H1522.6l4.334-19.028Z" transform="translate(-1118.388 -798.097)" fill="#868789" fill-rule="evenodd"/>
          <path id="path112" d="M1574.625,1009.622a21.417,21.417,0,0,0,5.587.761q3.15,0,3.5-1.548a1.31,1.31,0,0,0,.024-.234q0-1.205-2.995-1.731-4.3-.937-4.306-3.553a3.851,3.851,0,0,1,.1-.844q1.077-4.67,8.023-4.673a11.834,11.834,0,0,1,4.483,1.038l-.636,2.846a17.682,17.682,0,0,0-4.559-.758q-2.856,0-3.166,1.411a.862.862,0,0,0-.028.205c0,.727.89,1.363,2.653,1.9q4.6.936,4.6,3.6a3.934,3.934,0,0,1-.094.8q-1.064,4.675-8.313,4.673a19.222,19.222,0,0,1-5.529-1.052Z" transform="translate(-1154.749 -807.141)" fill="#868789" fill-rule="evenodd"/>
          <path id="path114" d="M1649.34,999.222l-3.447,15.044q-1.215,5.367-7.723,5.363c-.308.02-.6.032-.89.032a10.315,10.315,0,0,1-3.975-.664l.632-2.837a10.316,10.316,0,0,0,3.178.431c.559,0,1.149-.026,1.776-.086a2.66,2.66,0,0,0,2.9-2.238l.2-.856a7.775,7.775,0,0,1-3.548.845c-.181,0-.355-.006-.535-.018q-4.006-.11-4.007-3.593a8.662,8.662,0,0,1,.236-1.91l2.185-9.513h4.1l-2.186,9.513a4.387,4.387,0,0,0-.1.872q0,1.511,1.678,1.509a8.988,8.988,0,0,0,2.8-.471l2.616-11.423Z" transform="translate(-1196.746 -808.148)" fill="#868789" fill-rule="evenodd"/>
          <path id="path116" d="M1691.65,1009.622a21.37,21.37,0,0,0,5.587.761q3.136,0,3.5-1.548a1.047,1.047,0,0,0,.025-.234q0-1.205-3-1.731c-2.875-.625-4.306-1.811-4.306-3.553a3.355,3.355,0,0,1,.1-.844q1.063-4.67,8.013-4.673a11.836,11.836,0,0,1,4.492,1.038l-.645,2.846a17.537,17.537,0,0,0-4.557-.758q-2.847,0-3.169,1.411a1.022,1.022,0,0,0-.024.205c0,.727.886,1.363,2.659,1.9,3.053.624,4.587,1.825,4.587,3.6a3.921,3.921,0,0,1-.086.8q-1.077,4.675-8.322,4.673a19.139,19.139,0,0,1-5.519-1.052Z" transform="translate(-1237.581 -807.141)" fill="#868789" fill-rule="evenodd"/>
          <path id="path118" d="M1762.1,985.023h4.1l-.935,4.149h4.453l-.709,3.126h-4.453l-1.534,6.663a2.651,2.651,0,0,0-.073.625c0,.895.578,1.34,1.739,1.34a13.455,13.455,0,0,0,2.4-.248l-.618,2.751a9.6,9.6,0,0,1-3.689.622c-2.754,0-4.138-1.06-4.138-3.182a7.075,7.075,0,0,1,.186-1.491l1.626-7.08h-2.231l.718-3.126h2.222Z" transform="translate(-1285.164 -798.097)" fill="#868789" fill-rule="evenodd"/>
          <path id="path120" d="M1815.474,1013.123a24.8,24.8,0,0,1-6.237.773q-5.914,0-5.914-3.883a6.664,6.664,0,0,1,.178-1.48l.981-4.289q1.262-5.5,7.769-5.5,5.451,0,5.447,3.861a7.188,7.188,0,0,1-.205,1.642l-.746,3.293h-8.912l-.235,1a3.114,3.114,0,0,0-.073.622c0,1.081.8,1.619,2.42,1.619.382.018.776.029,1.158.029a23.334,23.334,0,0,0,5.015-.528Zm-7.087-8.018h4.807l.2-.844a3.832,3.832,0,0,0,.1-.816c0-1.052-.632-1.577-1.914-1.577a2.847,2.847,0,0,0-3,2.393Z" transform="translate(-1317.086 -807.807)" fill="#868789" fill-rule="evenodd"/>
          <path id="path122" d="M1866.594,1014.1l2.167-9.515a3.832,3.832,0,0,0,.1-.8c0-.958-.56-1.437-1.69-1.437h-1.96l-2.689,11.754h-4.093l3.362-14.739,5.791-.14a6.7,6.7,0,0,1,4.443,1.229,9,9,0,0,1,3.729-1.229q5.451,0,5.447,3.858a7.41,7.41,0,0,1-.205,1.645l-2.139,9.376h-4.1l2.167-9.515a3.388,3.388,0,0,0,.113-.8c0-.958-.571-1.437-1.7-1.437a5.947,5.947,0,0,0-2.317.485v.22a8.174,8.174,0,0,1-.19,1.673l-2.139,9.376Z" transform="translate(-1356.093 -808.15)" fill="#868789" fill-rule="evenodd"/>
          <path id="path124" d="M1939.639,1009.628a21.447,21.447,0,0,0,5.586.761q3.15,0,3.5-1.549a1.3,1.3,0,0,0,.024-.234q0-1.206-2.995-1.731-4.3-.936-4.306-3.552a3.8,3.8,0,0,1,.1-.844q1.077-4.671,8.022-4.674a11.816,11.816,0,0,1,4.483,1.038l-.636,2.845a17.712,17.712,0,0,0-4.556-.758q-2.861,0-3.17,1.411a.872.872,0,0,0-.028.205c0,.727.89,1.364,2.653,1.9q4.6.937,4.6,3.6a3.926,3.926,0,0,1-.094.8q-1.063,4.675-8.313,4.674a19.179,19.179,0,0,1-5.528-1.052Z" transform="translate(-1413.11 -807.145)" fill="#868789" fill-rule="evenodd"/>
        </g>
      </g>
    </g>
  </g>
</svg>
